<mxfile host="app.diagrams.net" modified="2021-11-05T21:00:43.569Z" agent="5.0 (Windows NT 10.0; Win64; x64) AppleWebKit/537.36 (KHTML, like Gecko) Chrome/95.0.4638.69 Safari/537.36" etag="1l523UFYp1H6tQ699ef4" version="15.5.9" type="github">
  <diagram name="Page-1" id="7e0a89b8-554c-2b80-1dc8-d5c74ca68de4">
    <mxGraphModel dx="1191" dy="1095" grid="1" gridSize="10" guides="1" tooltips="1" connect="1" arrows="1" fold="1" page="1" pageScale="1" pageWidth="1100" pageHeight="850" background="none" math="0" shadow="0">
      <root>
        <mxCell id="0" />
        <mxCell id="1" parent="0" />
        <mxCell id="Pbdb0UxLMgRThQkrf_QL-1" value="R1" style="verticalLabelPosition=bottom;shadow=0;dashed=0;align=center;html=1;verticalAlign=top;strokeWidth=1;shape=mxgraph.electrical.resistors.resistor_2;rounded=1;comic=0;labelBackgroundColor=none;fontFamily=Verdana;fontSize=12" vertex="1" parent="1">
          <mxGeometry x="310" y="150" width="130" height="20" as="geometry" />
        </mxCell>
        <mxCell id="Pbdb0UxLMgRThQkrf_QL-2" value="R2" style="verticalLabelPosition=bottom;shadow=0;dashed=0;align=center;html=1;verticalAlign=top;strokeWidth=1;shape=mxgraph.electrical.resistors.resistor_2;rounded=1;comic=0;labelBackgroundColor=none;fontFamily=Verdana;fontSize=12;rotation=90;" vertex="1" parent="1">
          <mxGeometry x="508" y="220" width="140" height="20" as="geometry" />
        </mxCell>
        <mxCell id="Pbdb0UxLMgRThQkrf_QL-8" style="edgeStyle=orthogonalEdgeStyle;rounded=0;orthogonalLoop=1;jettySize=auto;html=1;exitX=1;exitY=0.5;exitDx=0;exitDy=0;exitPerimeter=0;entryX=1;entryY=0.5;entryDx=0;entryDy=0;entryPerimeter=0;endArrow=none;endFill=0;" edge="1" parent="1" source="Pbdb0UxLMgRThQkrf_QL-3" target="Pbdb0UxLMgRThQkrf_QL-2">
          <mxGeometry relative="1" as="geometry">
            <Array as="points">
              <mxPoint x="508" y="300" />
              <mxPoint x="508" y="300" />
            </Array>
          </mxGeometry>
        </mxCell>
        <mxCell id="Pbdb0UxLMgRThQkrf_QL-3" value="C1" style="pointerEvents=1;verticalLabelPosition=bottom;shadow=0;dashed=0;align=center;html=1;verticalAlign=top;shape=mxgraph.electrical.capacitors.capacitor_1;rotation=90;labelPosition=center;" vertex="1" parent="1">
          <mxGeometry x="368" y="215" width="140" height="30" as="geometry" />
        </mxCell>
        <mxCell id="Pbdb0UxLMgRThQkrf_QL-5" style="edgeStyle=orthogonalEdgeStyle;rounded=0;orthogonalLoop=1;jettySize=auto;html=1;exitX=0.5;exitY=0;exitDx=0;exitDy=0;exitPerimeter=0;entryX=0;entryY=0.5;entryDx=0;entryDy=0;entryPerimeter=0;endArrow=none;endFill=0;" edge="1" parent="1" source="Pbdb0UxLMgRThQkrf_QL-4" target="Pbdb0UxLMgRThQkrf_QL-1">
          <mxGeometry relative="1" as="geometry" />
        </mxCell>
        <mxCell id="Pbdb0UxLMgRThQkrf_QL-7" style="edgeStyle=orthogonalEdgeStyle;rounded=0;orthogonalLoop=1;jettySize=auto;html=1;exitX=0.5;exitY=1;exitDx=0;exitDy=0;exitPerimeter=0;entryX=1;entryY=0.5;entryDx=0;entryDy=0;entryPerimeter=0;endArrow=none;endFill=0;" edge="1" parent="1" source="Pbdb0UxLMgRThQkrf_QL-4" target="Pbdb0UxLMgRThQkrf_QL-3">
          <mxGeometry relative="1" as="geometry">
            <Array as="points">
              <mxPoint x="260" y="300" />
            </Array>
          </mxGeometry>
        </mxCell>
        <mxCell id="Pbdb0UxLMgRThQkrf_QL-4" value="" style="pointerEvents=1;verticalLabelPosition=bottom;shadow=0;dashed=0;align=center;html=1;verticalAlign=top;shape=mxgraph.electrical.signal_sources.source;aspect=fixed;points=[[0.5,0,0],[1,0.5,0],[0.5,1,0],[0,0.5,0]];elSignalType=ac;" vertex="1" parent="1">
          <mxGeometry x="240" y="210" width="40" height="40" as="geometry" />
        </mxCell>
        <mxCell id="Pbdb0UxLMgRThQkrf_QL-6" value="C2" style="pointerEvents=1;verticalLabelPosition=bottom;shadow=0;dashed=0;align=center;html=1;verticalAlign=top;shape=mxgraph.electrical.capacitors.capacitor_1;rotation=0;" vertex="1" parent="1">
          <mxGeometry x="438" y="145" width="140" height="30" as="geometry" />
        </mxCell>
      </root>
    </mxGraphModel>
  </diagram>
</mxfile>
